<?xml version="1.0" encoding="utf-8"?>
<!-- Generator: Adobe Illustrator 21.1.0, SVG Export Plug-In . SVG Version: 6.00 Build 0)  -->
<svg version="1.1" id="Layer_1" xmlns="http://www.w3.org/2000/svg" xmlns:xlink="http://www.w3.org/1999/xlink" x="0px" y="0px"
	 viewBox="0 0 40 40" style="enable-background:new 0 0 40 40;" xml:space="preserve">
<g>
	<path d="M15.9,20.7c-0.1-0.2-0.1-0.5-0.3-0.7c-0.1,0.4-0.5,0.8-1,0.8c-0.6,0-1-0.5-1-1c0-0.3,0.1-0.5,0.3-0.7c-1.1,0-2,0.9-2,2
		c0,1.1,0.9,2,2,2c0.9,0,1.6-0.6,1.9-1.4c0,0,0,0,0,0c-0.3,0-0.5-0.3-0.5-0.6C15.4,20.9,15.7,20.7,15.9,20.7z"/>
	<path d="M37.9,22.7c0-0.4,0.1-0.9,0-1.3c-0.1-3-1.3-5.9-3.4-7.8c-0.3-1.1-0.8-2.2-1.5-3.1c-1.4-2-3.8-3.1-6.3-3
		c-0.2-0.6-0.4-1.3-0.9-1.7c-0.5-0.5-1.2-0.8-2-0.8c0,0,0,0,0,0c-1.2,0-2.1,0.8-2.9,1.9c-0.7-0.5-1.5-0.8-2.3-1
		C16.8,5.3,15,5.8,13.8,7l-8-6.8C5.5-0.1,5-0.1,4.7,0.2C4.3,0.5,4.2,0.9,4.4,1.3l5.8,11.1c-0.3,0.1-0.7,0.1-1,0
		c-0.5-0.1-0.9-0.3-1.3-0.6c0,0-0.1-0.1-0.2-0.1c-0.2-0.1-0.4-0.1-0.6,0c-0.2,0.1-0.3,0.2-0.4,0.4c-0.1,0.2,0,0.5,0,0.6l0,0.1
		c0,0.2,0.1,0.4,0.1,0.6c0.2,0.7,0.6,1.4,1.1,1.9c0.1,0.1,0.3,0.3,0.4,0.4c-1.3,1.5-2.8,3.1-4.2,4.6l-0.4,0.4
		c-1.3,1.4-2.6,2.8-3.3,4.7c-0.7,2-0.5,4.9,1.7,6.4c1.2,0.8,2.8,1.1,4.7,1c0.5,0,0.9-0.1,1.3-0.2c0,0,0,0,0,0c0,0,0,0,0,0
		c0,0,0,0,0,0c0.1,0,1.9-0.5,2.9-1.8c1.5,0.9,3.9,1.6,6,0.5c-0.5,1.8-1.1,4.6-1.6,7.4c-0.1,0.4,0.2,0.7,0.6,0.8c0,0,0.1,0,0.1,0
		c0.3,0,0.6-0.2,0.7-0.6c0.6-3.6,1.6-7.2,1.9-8.6c0.1-0.4-0.1-0.8-0.4-1c-0.3-0.2-0.8-0.1-1.1,0.1c-2.4,2.4-5.9,0-6.1-0.1
		c-0.2-0.1-0.4-0.2-0.6-0.1c-0.2,0-0.4,0.2-0.5,0.4c-0.3,0.6-1,1.1-1.6,1.4c-0.1-1.3-0.2-2.5-0.5-3.5c-0.3-1.2-0.7-2.5-1.3-3.6
		c-0.5-1-1.1-1.9-1.7-2.7c1.4-1.5,2.9-3.2,4.3-4.8c0.8,0.3,1.6,0.4,2.4,0.4c0.8,0,1.6-0.1,2.3-0.3c1.1-0.3,2.2-1,3.1-1.8
		c0.4-0.4,0.9-0.9,1.2-1.4c0.2-0.3,0.4-0.5,0.5-0.8c0,0,0,0,0,0c0.1,0,0.2,0.1,0.2,0.1c0.4,0.1,0.7-0.2,0.8-0.5
		c0-0.2,0.1-0.4,0.2-0.6c0,0,0,0,0-0.1c0.5-1.8,1.8-5,3.4-5c0,0,0,0,0,0c0.4,0,0.8,0.1,1,0.4c0.6,0.6,0.8,1.9,0.7,2.9
		c-0.1,1.9-1.5,3.5-3.3,3.8c-0.4,0.1-0.6,0.4-0.6,0.8c0.1,0.3,0.3,0.6,0.7,0.6c0,0,0.1,0,0.1,0c0.6-0.1,1.2-0.3,1.7-0.6
		c2.1,1.1,3.2,3.8,3.3,6c0,2-0.9,4-2.4,5.1c-0.3,0.2-0.4,0.6-0.3,0.9c0.1,0.3,0.4,0.6,0.7,0.6c0.2,0,0.3,0,0.5,0
		c0.8,0,1.7-0.2,2.5-0.5c-0.1,0.8-0.5,1.6-1.1,2.2c-0.8,0.7-1.9,0.9-2.9,0.7c-0.3-0.1-0.7,0-0.9,0.3c-0.2,0.3-0.2,0.6-0.1,0.9
		c0.4,0.7,1,1.2,1.7,1.6c-0.8,0.6-1.3,1.6-1.5,2.7c-0.2,1.4,0.3,2.9,1.3,3.9c0.8,0.8,1.8,1.3,3.1,1.5c0,0,0.1,0,0.1,0
		c0.3,0,0.6-0.2,0.8-0.4c0.2-0.3,0.2-0.7,0-1c-0.1-0.2-0.2-0.3-0.3-0.5c-0.2-0.2-0.3-0.5-0.3-0.7c-0.1-0.5,0-0.9,0.2-1.2
		c0.6-0.7,2.2-0.8,3.5-0.9c0.7-0.1,1.3-0.1,1.8-0.2c3-0.7,5.4-3.3,5.8-6.3C40,26.7,39.3,24.4,37.9,22.7z M7,27.7
		c0.3,1.1,0.4,2.2,0.4,3.6c-0.2,0-0.3,0-0.5,0c-1.6,0.1-2.9-0.2-3.8-0.8c-1.6-1.1-1.8-3.2-1.2-4.8c0.5-1.4,1.5-2.6,2.5-3.7
		c0.5,0.8,1,1.5,1.4,2.3C6.3,25.5,6.7,26.6,7,27.7z M13.1,8.2C13.1,8.2,13,8.3,13.1,8.2c-0.2,0.6-0.4,1-0.5,1.5
		c-0.1,0.2-0.1,0.4-0.2,0.7c-0.1,0.5-0.4,0.9-0.7,1.3c-0.1,0.1-0.1,0.1-0.2,0.2L6.9,2.9L13.1,8.2z M18.4,10.9
		c-0.1,0.2-0.2,0.4-0.3,0.6c0,0.1-0.1,0.2-0.1,0.3c-0.1,0.2-0.3,0.4-0.4,0.7c-0.3,0.4-0.7,0.8-1.1,1.2c-0.7,0.7-1.6,1.2-2.5,1.5
		c-1.5,0.5-3.7,0.4-5-0.8c-0.2-0.2-0.3-0.4-0.5-0.6c0.2,0.1,0.3,0.1,0.5,0.1c0.7,0.1,1.4,0.1,2-0.1c0.6-0.2,1.2-0.6,1.7-1.1
		c0.5-0.5,0.9-1.1,1.1-1.9c0.1-0.2,0.1-0.5,0.2-0.7c0.1-0.4,0.2-0.8,0.4-1.2c0.6-1.5,2.5-2.1,3.9-1.8c0.7,0.2,1.3,0.5,1.9,0.9
		c-0.4,0.9-0.8,1.8-1,2.5C18.9,10.4,18.6,10.6,18.4,10.9z M28.8,20c0-2.4-1.3-5.4-3.5-6.8c0.9-0.9,1.5-2.2,1.6-3.6
		c0-0.2,0-0.5,0-0.8c2,0,3.9,0.8,5,2.4c2.2,3.1,2.2,7.4-0.1,10.5c-1.1,1.5-2.9,3-4.8,3.4C28.2,23.8,28.8,21.9,28.8,20z M28.2,29.4
		c1.1-1,1.7-2.5,1.5-3.9c1.3-0.8,2.4-1.9,3.2-2.9c1.4-1.9,2-4.2,2-6.4c1,1.5,1.6,3.3,1.7,5.3c0.1,2.8-1,5.5-3,7.4
		c-0.6,0.6-1.2,1-1.9,1.4c-1.1,0.6-2.2,0.9-3.3,1c-0.6,0-1.8,0-2.8-0.6C26.6,30.4,27.5,30.1,28.2,29.4z M38.3,28.6
		c-0.4,2.5-2.4,4.6-4.8,5.2c-0.4,0.1-1,0.1-1.6,0.2c-1.6,0.1-3.5,0.3-4.4,1.4C27,36,26.9,36.8,27,37.7c0,0.3,0.1,0.5,0.2,0.7
		c-0.5-0.2-0.9-0.4-1.3-0.8c-0.6-0.7-1-1.8-0.9-2.8c0.1-0.8,0.5-1.5,1.1-1.9c0.2-0.2,0.5-0.3,0.8-0.4c0.4,0.1,0.7,0.1,1.1,0.1
		c0.1,0,0.2,0,0.4,0c1.3-0.1,2.6-0.5,3.9-1.1c0.8-0.4,1.5-1,2.2-1.6c1.5-1.4,2.5-3.2,3-5.2C38.2,25.8,38.5,27.3,38.3,28.6z"/>
</g>
</svg>
